<svg width="32" height="32" viewBox="0 0 32 32" fill="none" xmlns="http://www.w3.org/2000/svg">
<g clip-path="url(#clip0_1743_113)">
<path d="M29.3333 6.66803H22.6667V5.33466C22.6667 3.86397 21.4708 2.66797 20 2.66797H12C10.5293 2.66797 9.33331 3.86391 9.33331 5.33466V6.66797H2.66669C1.19594 6.66803 0 7.86397 0 9.33466V13.3347C0 14.8054 1.19594 16.0014 2.66669 16.0014H13.3334V15.3347C13.3334 14.9662 13.6316 14.668 14.0001 14.668H18.0001C18.3686 14.668 18.6667 14.9662 18.6667 15.3347V16.0014H29.3334C30.8041 16.0014 32 14.8054 32 13.3347V9.33466C32 7.86397 30.8041 6.66803 29.3333 6.66803ZM20 6.66803H12V5.33466H20V6.66803Z" fill="#D7DAE3"/>
<path d="M31.6302 16.7188C31.403 16.6062 31.1315 16.6323 30.9309 16.7846C30.457 17.1433 29.9049 17.3328 29.3333 17.3328H18.6667V19.3328C18.6667 19.7013 18.3685 19.9995 18 19.9995H14C13.6315 19.9995 13.3333 19.7013 13.3333 19.3328V17.3328H2.66669C2.09506 17.3328 1.543 17.1433 1.069 16.7846C0.867813 16.631 0.597 16.6049 0.36975 16.7188C0.14325 16.8315 0 17.0626 0 17.3159V26.6662C0 28.1369 1.19594 29.3329 2.66669 29.3329H29.3334C30.8041 29.3329 32.0001 28.1369 32.0001 26.6662V17.3159C32 17.0626 31.8568 16.8315 31.6302 16.7188Z" fill="#9AA6C8"/>
</g>
<defs>
<clipPath id="clip0_1743_113">
<rect width="32" height="32" fill="white"/>
</clipPath>
</defs>
</svg>
