<svg width="30" height="30" viewBox="0 0 30 30" fill="none" xmlns="http://www.w3.org/2000/svg">
<path d="M23.2344 15C23.2344 13.3683 22.7505 11.7733 21.844 10.4165C20.9375 9.05984 19.649 8.00242 18.1415 7.378C16.634 6.75357 14.9752 6.5902 13.3749 6.90853C11.7745 7.22685 10.3045 8.01259 9.15075 9.16637C7.99696 10.3202 7.21123 11.7902 6.8929 13.3905C6.57457 14.9909 6.73795 16.6497 7.36237 18.1571C7.9868 19.6646 9.04422 20.9531 10.4009 21.8596C11.7576 22.7661 13.3527 23.25 14.9844 23.25C17.1716 23.2474 19.2685 22.3774 20.8152 20.8308C22.3618 19.2842 23.2318 17.1872 23.2344 15ZM14.2344 19.5V18.675C12.9286 18.4298 11.9844 17.5673 11.9844 16.5C11.9844 16.3011 12.0634 16.1103 12.204 15.9697C12.3447 15.829 12.5355 15.75 12.7344 15.75C12.9333 15.75 13.1241 15.829 13.2647 15.9697C13.4054 16.1103 13.4844 16.3011 13.4844 16.5C13.4844 16.806 14.0686 17.25 14.9844 17.25C15.9001 17.25 16.4844 16.806 16.4844 16.5C16.4844 16.194 15.9001 15.75 14.9844 15.75C13.3021 15.75 11.9844 14.7615 11.9844 13.5C11.9844 12.4343 12.9286 11.5718 14.2344 11.325V10.5C14.2344 10.3011 14.3134 10.1103 14.454 9.96967C14.5947 9.82902 14.7855 9.75 14.9844 9.75C15.1833 9.75 15.3741 9.82902 15.5147 9.96967C15.6554 10.1103 15.7344 10.3011 15.7344 10.5V11.325C17.0401 11.5703 17.9844 12.4328 17.9844 13.5C17.9844 13.6989 17.9054 13.8897 17.7647 14.0303C17.6241 14.171 17.4333 14.25 17.2344 14.25C17.0355 14.25 16.8447 14.171 16.704 14.0303C16.5634 13.8897 16.4844 13.6989 16.4844 13.5C16.4844 13.194 15.9001 12.75 14.9844 12.75C14.0686 12.75 13.4844 13.194 13.4844 13.5C13.4844 13.806 14.0686 14.25 14.9844 14.25C16.6666 14.25 17.9844 15.2385 17.9844 16.5C17.9844 17.5658 17.0401 18.4283 15.7344 18.675V19.5C15.7344 19.6989 15.6554 19.8897 15.5147 20.0303C15.3741 20.171 15.1833 20.25 14.9844 20.25C14.7855 20.25 14.5947 20.171 14.454 20.0303C14.3134 19.8897 14.2344 19.6989 14.2344 19.5Z" fill="#9AA6C8"/>
<path d="M14.9618 30C15.5867 29.8719 16.1612 29.5658 16.6162 29.1188C17.1561 28.6454 17.7834 28.2823 18.4627 28.05C19.1872 27.909 19.9322 27.9113 20.6558 28.0568C21.2524 28.2118 21.8806 28.1956 22.4685 28.0103C22.9328 27.5915 23.2686 27.0495 23.4368 26.4473C23.6413 25.9001 23.9129 25.3804 24.2453 24.9C24.2542 24.8873 24.4298 24.6607 24.5212 24.57C25.0732 24.0924 25.7132 23.7273 26.4053 23.4953C27.0086 23.3308 27.5524 22.9975 27.9728 22.5345C28.1625 21.948 28.1823 21.3198 28.0298 20.7225C27.8892 19.9981 27.8905 19.2534 28.0335 18.5295C28.2691 17.8521 28.635 17.2274 29.1105 16.6905C29.5605 16.2383 29.8696 15.665 30 15.0405C29.8734 14.4148 29.5674 13.8394 29.1195 13.3845C28.6469 12.8448 28.2846 12.2177 28.053 11.5387C27.9127 10.814 27.915 10.0689 28.0597 9.345C28.215 8.74911 28.1986 8.12148 28.0125 7.5345C27.5941 7.06957 27.052 6.73345 26.4495 6.5655C25.7584 6.32982 25.1202 5.96114 24.5708 5.48025C24.0931 4.92829 23.7281 4.28829 23.496 3.59625C23.3324 2.99151 22.999 2.44627 22.5353 2.025C21.949 1.83526 21.321 1.8155 20.724 1.968C19.9996 2.10867 19.2548 2.10714 18.531 1.9635C17.8532 1.72874 17.2281 1.36306 16.6912 0.88725C16.2379 0.437934 15.664 0.129736 15.039 0C14.4141 0.12813 13.8395 0.434162 13.3845 0.88125C12.8445 1.35444 12.2173 1.7175 11.538 1.95C10.8133 2.09062 10.0681 2.08833 9.34425 1.94325C8.74818 1.7878 8.12031 1.80392 7.533 1.98975C7.06854 2.4082 6.7325 2.94998 6.564 3.552C6.3285 4.24338 5.9598 4.88191 5.47875 5.4315C4.92675 5.90923 4.28678 6.27456 3.59475 6.507C2.99136 6.6713 2.4475 7.00464 2.02725 7.46775C1.83784 8.05353 1.81808 8.68096 1.97025 9.2775C2.11129 10.0024 2.10976 10.7477 1.96575 11.472C1.73084 12.1498 1.36518 12.7748 0.8895 13.3118C0.439742 13.7642 0.130775 14.3373 0 14.9618C0.128213 15.5877 0.435395 16.163 0.88425 16.6178C1.35638 17.1572 1.71866 17.7837 1.95075 18.462C2.09057 19.1868 2.08827 19.9318 1.944 20.6558C1.78877 21.2521 1.80515 21.8803 1.99125 22.4678C2.40932 22.9325 2.95126 23.2684 3.5535 23.436C4.24381 23.6732 4.88103 24.0431 5.42925 24.525C5.52 24.6165 5.694 24.8438 5.703 24.8557C6.03371 25.3381 6.3028 25.8599 6.504 26.409C6.66855 27.0125 7.00215 27.5563 7.4655 27.9765C8.05174 28.1662 8.67974 28.186 9.27675 28.0335C9.69608 27.9712 10.1189 27.9354 10.5427 27.9263C10.8553 27.9224 11.167 27.96 11.4697 28.038C12.1475 28.2729 12.7726 28.6386 13.3095 29.1143C13.763 29.563 14.337 29.8707 14.9618 30ZM5.23425 15C5.23425 13.0716 5.80608 11.1866 6.87742 9.58319C7.94877 7.97981 9.47151 6.73013 11.2531 5.99217C13.0347 5.25422 14.9951 5.06114 16.8864 5.43734C18.7777 5.81355 20.515 6.74215 21.8785 8.10571C23.2421 9.46927 24.1707 11.2066 24.5469 13.0979C24.9231 14.9892 24.73 16.9496 23.9921 18.7312C23.2541 20.5127 22.0044 22.0355 20.4011 23.1068C18.7977 24.1782 16.9126 24.75 14.9843 24.75C12.3993 24.747 9.92108 23.7188 8.09325 21.891C6.26541 20.0632 5.23723 17.5849 5.23425 15Z" fill="#D7DAE3"/>
</svg>
